<svg fill="none" viewBox="0 0 20 20" xmlns="http://www.w3.org/2000/svg"><g fill="rgb(0,0,0)"><path d="m5 5c0 .55228-.44772 1-1 1s-1-.44772-1-1 .44772-1 1-1 1 .44772 1 1z"/><path d="m5 10c0 .5523-.44772 1-1 1s-1-.4477-1-1c0-.55228.44772-1 1-1s1 .44772 1 1z"/><path d="m5 15c0 .5523-.44772 1-1 1s-1-.4477-1-1 .44772-1 1-1 1 .4477 1 1z"/><g clip-rule="evenodd" fill-rule="evenodd"><path d="m6.5 5c0-.41421.33579-.75.75-.75h9c.4142 0 .75.33579.75.75s-.3358.75-.75.75h-9c-.41421 0-.75-.33579-.75-.75z"/><path d="m6.5 10c0-.41421.33579-.75.75-.75h9c.4142 0 .75.33579.75.75 0 .4142-.3358.75-.75.75h-9c-.41421 0-.75-.3358-.75-.75z"/><path d="m6.5 15c0-.4142.33579-.75.75-.75h9c.4142 0 .75.3358.75.75s-.3358.75-.75.75h-9c-.41421 0-.75-.3358-.75-.75z"/></g></g></svg>