<svg id="Layer_1" enable-background="new 0 0 468 468" viewBox="0 0 468 468" xmlns="http://www.w3.org/2000/svg"><g><g><g><path d="m32.163 92.297c.139-6.344 4.019-12.006 9.889-14.427l185.829-76.66c3.912-1.612 8.3-1.612 12.208-.001l185.94 76.66c5.898 2.432 9.786 8.132 9.895 14.505 2.374 140.418-51.28 285.785-171.981 365.712-17.962 11.895-39.905 13.766-60.691 1.892-53.112-30.341-176.35-126.476-171.089-367.681zm31.846 11.103c-1.269 216.323 107.601 301.843 155.052 328.779 8.53 4.843 19.21 4.551 27.206-.744 108.347-71.747 157.559-202.008 157.708-328.074l-169.985-70.082z"/></g><path d="m309.435 176.003v-20.983c0-42.325-35.191-76.759-78.446-76.759s-78.446 34.434-78.446 76.759v20.983c-11.051 6.147-18.548 17.934-18.548 31.442v95.922c0 19.831 16.148 35.965 35.998 35.965h121.993c19.849 0 35.998-16.134 35.998-35.965v-95.922c-.002-13.508-7.498-25.295-18.549-31.442zm-78.447-65.773c25.612 0 46.448 20.093 46.448 44.79v16.46h-92.896v-16.46c0-24.697 20.837-44.79 46.448-44.79zm64.996 193.137c0 2.203-1.794 3.996-4 3.996h-121.992c-2.206 0-4-1.793-4-3.996v-95.922c0-2.203 1.794-3.996 4-3.996h121.993c2.206 0 4 1.793 4 3.996v95.922z"/><path d="m250.987 241.84c0-11.035-8.954-19.981-19.999-19.981s-19.999 8.946-19.999 19.981c0 6.531 3.15 12.311 8 15.957v29.855h23.999v-29.855c4.849-3.646 7.999-9.426 7.999-15.957z"/></g></g></svg>