<svg fill="none" height="512" viewBox="0 0 24 24" width="512" xmlns="http://www.w3.org/2000/svg"><g clip-rule="evenodd" fill-rule="evenodd"><path d="m3.87868 1.87868c.56261-.56261 1.32567-.87868 2.12132-.87868h8.5c.2652 0 .5196.10536.7071.29289l5.5 5.5c.1875.18754.2929.44189.2929.70711v12.5c0 .7957-.3161 1.5587-.8787 2.1213s-1.3256.8787-2.1213.8787h-14c-.55228 0-1-.4477-1-1s.44772-1 1-1h14c.2652 0 .5196-.1054.7071-.2929s.2929-.4419.2929-.7071v-12.08579l-4.9142-4.91421h-8.0858c-.26522 0-.51957.10536-.70711.29289-.18753.18754-.29289.44189-.29289.70711v4c0 .55228-.44772 1-1 1s-1-.44772-1-1v-4c0-.79565.31607-1.55871.87868-2.12132z"/><path d="m14 1c.5523 0 1 .44772 1 1v5h5c.5523 0 1 .44772 1 1s-.4477 1-1 1h-6c-.5523 0-1-.44772-1-1v-6c0-.55228.4477-1 1-1z"/><path d="m1 15c0-.5523.44772-1 1-1h10c.5523 0 1 .4477 1 1s-.4477 1-1 1h-10c-.55228 0-1-.4477-1-1z"/><path d="m8.29289 11.2929c.39053-.3905 1.02369-.3905 1.41422 0l2.99999 3c.3905.3905.3905 1.0237 0 1.4142l-2.99999 3c-.39053.3905-1.02369.3905-1.41422 0-.39052-.3905-.39052-1.0237 0-1.4142l2.29291-2.2929-2.29291-2.2929c-.39052-.3905-.39052-1.0237 0-1.4142z"/></g></svg>