<svg id="Layer_1" enable-background="new 0 0 512.002 512.002" height="512" viewBox="0 0 512.002 512.002" width="512" xmlns="http://www.w3.org/2000/svg"><g><path d="m209.106 86.826c-2.169-5.902-7.791-9.825-14.08-9.825l-59.479.001c-6.289 0-11.909 3.923-14.079 9.826l-120.547 327.999c-1.691 4.601-1.027 9.739 1.778 13.759 2.806 4.02 7.398 6.416 12.301 6.416h68.744c6.289 0 11.91-3.923 14.079-9.826l24.056-65.453h86.82l24.057 65.454c2.169 5.902 7.791 9.825 14.079 9.825h68.745c4.902 0 9.495-2.396 12.301-6.416 2.806-4.021 3.47-9.158 1.778-13.759zm-7.504 197.664c-1.403 2.01-3.699 3.208-6.15 3.208h-60.327c-2.451 0-4.748-1.198-6.15-3.208-1.403-2.01-1.735-4.579-.889-6.879l30.163-82.07c2.343-6.497 11.738-6.495 14.079 0l30.164 82.07c.845 2.3.513 4.869-.89 6.879z"/><path d="m497.002 261.001c-8.284 0-15 6.716-15 15v6.324c-55.155-48.643-144.289-8.583-143.999 65.677-.291 74.255 88.858 114.322 143.999 65.675v6.325c.793 19.902 29.215 19.887 30 0v-144c0-8.285-6.716-15.001-15-15.001zm-15 87.309c-.167 31.288-25.673 56.69-56.999 56.69-75.618-3.131-75.596-110.88 0-114 31.326 0 56.831 25.403 56.999 56.69z"/></g></svg>