<svg fill="none" height="512" viewBox="0 0 24 24" width="512" xmlns="http://www.w3.org/2000/svg"><g clip-rule="evenodd" fill-rule="evenodd"><path d="m3 12c0-.5523.44772-1 1-1h8c.5523 0 1 .4477 1 1s-.4477 1-1 1h-8c-.55228 0-1-.4477-1-1z"/><path d="m4 5c.55228 0 1 .44772 1 1v12c0 .5523-.44772 1-1 1s-1-.4477-1-1v-12c0-.55228.44772-1 1-1z"/><path d="m12 5c.5523 0 1 .44772 1 1v12c0 .5523-.4477 1-1 1s-1-.4477-1-1v-12c0-.55228.4477-1 1-1z"/><path d="m19.461 11.2172c-.3473-.1638-.8732-.1966-1.4538.145-.4761.28-1.089.1211-1.369-.3549-.28-.4761-.1211-1.08896.3549-1.36898 1.1194-.65846 2.3435-.69117 3.3212-.23.9699.45751 1.6859 1.40988 1.6859 2.59198 0 .7956-.3161 1.5587-.8787 2.1213s-1.3257.8787-2.1213.8787c-.5523 0-1-.4478-1-1 0-.5523.4477-1 1-1 .2652 0 .5195-.1054.7071-.2929.1875-.1876.2929-.4419.2929-.7071 0-.318-.1841-.6156-.5392-.7831z"/><path d="m18.0001 14c0-.5523.4477-1 1-1 .7956 0 1.5587.3161 2.1213.8787s.8787 1.3256.8787 2.1213c0 1.2853-.7234 2.3971-1.8397 2.8994-1.1347.5106-2.5184.3321-3.7603-.5994-.4419-.3314-.5314-.9582-.2-1.4.3313-.4418.9581-.5314 1.4-.2.758.5685 1.3743.54 1.7396.3756.3837-.1727.6604-.5609.6604-1.0756 0-.2652-.1054-.5196-.2929-.7071-.1876-.1875-.4419-.2929-.7071-.2929-.5523 0-1-.4477-1-1z"/></g></svg>