<svg id="Layer_1" enable-background="new 0 0 512 512" viewBox="0 0 512 512"  xmlns="http://www.w3.org/2000/svg"><path id="_x34_2.Italic" d="m434.571 23.857v35.714c0 9.862-7.995 17.857-17.857 17.857h-70.044l-89.286 357.143h52.188c9.862 0 17.857 7.995 17.857 17.857v35.714c0 9.862-7.995 17.857-17.857 17.857h-214.286c-9.862 0-17.857-7.995-17.857-17.857v-35.714c0-9.862 7.995-17.857 17.857-17.857h70.045l89.286-357.143h-52.187c-9.862 0-17.857-7.995-17.857-17.857v-35.714c0-9.862 7.995-17.857 17.857-17.857h214.286c9.861 0 17.855 7.995 17.855 17.857z"/></svg>