<svg fill="none" height="512" viewBox="0 0 24 24" width="512" xmlns="http://www.w3.org/2000/svg"><g><path d="m5.39 7.00002c-.25-.49-.84999-.69002-1.33999-.45002-.64.32-1.26.85004-1.73 1.29004-.41.37-.43001 1.00998-.06001 1.40998.2.21.47.32.74.32.24 0 .48-.09001.68-.26001.2-.18.8-.73997 1.27-.96997.49-.25.69-.85002.45-1.34002z"/><path d="m21.66 7.66c-2.67-2.36-6.07-3.65998-9.57-3.65998-1.65 0-3.26.28002-4.8.83002-.03.01-.06.04-.09.06l-1.47-1.57001c-.38-.4-1.00999-.42999-1.40999-.04999s-.42 1.00998-.05 1.40998l13.99999 14.99998c.2.21.46.32.73.32.24 0 .49-.09.68-.27.4-.38.42-1.01.05-1.41l-7.38-7.91c2.21.07 4.27 1 5.84 2.65.2.21.46.31.72.31.25 0 .5-.0899.69-.2799.4-.38.42-1.0101.04-1.4101-2.01-2.11998-4.7-3.27995-7.55-3.27995-.5 0-1 .03998-1.49.10998 0 0-.01 0-.02 0l-1.89-2.03002c1.1-.32 2.24-.48999 3.4-.48999 3.01 0 5.94 1.12003 8.25 3.16003.19.17.43.25.66.25.28 0 .55-.11003.75-.34003.37-.41.33-1.04997-.09-1.40997z"/><path d="m8.28 10.16c-.28-.48-.88999-.63999-1.36999-.35999-.82.46999-1.57001 1.05999-2.24001 1.73999-.39.39-.38 1.03 0 1.41.2.19.45.29.7.29s.52001-.1.71001-.3c.55-.56 1.15999-1.03 1.81999-1.42.48-.28.64-.89.36-1.37z"/><path d="m11.34 13.65c-.16-.53-.72-.82-1.25-.66-1.04.32-2.06 1.28-2.57 1.82-.38.4-.37 1.0299.04 1.4099.19.18.44.2801.69.2801.26 0 .53-.1.72-.31.62-.65 1.29-1.15 1.71-1.28.53-.16.82-.72.66-1.25z"/><path d="m12 19.96c.6904 0 1.25-.5596 1.25-1.25 0-.6903-.5596-1.25-1.25-1.25s-1.25.5597-1.25 1.25c0 .6904.5596 1.25 1.25 1.25z"/></g></svg>