<svg id="Layer_1" enable-background="new 0 0 512 512" viewBox="0 0 512 512" xmlns="http://www.w3.org/2000/svg"><path id="_x37_1.Text" d="m460.643 6h-409.286c-9.862 0-17.857 7.995-17.857 17.857v107.143c0 9.862 7.995 17.857 17.857 17.857h35.714c9.862 0 17.857-7.995 17.857-17.857v-35.714h106.429v339.286h-44.643c-9.862 0-17.857 7.995-17.857 17.857v35.714c0 9.862 7.995 17.857 17.857 17.857h178.571c9.862 0 17.857-7.995 17.857-17.857v-35.714c0-9.862-7.995-17.857-17.857-17.857h-44.643v-339.286h106.429v35.714c0 9.862 7.995 17.857 17.857 17.857h35.714c9.862 0 17.857-7.995 17.857-17.857v-107.143c.001-9.862-7.994-17.857-17.856-17.857z"/></svg>