<svg id="Layer_1" height="512" viewBox="0 0 100 100" width="512" xmlns="http://www.w3.org/2000/svg"><path d="m26.667 63.806v-27.612c5.742-1.487 10-6.656 10-12.861 0-7.363-5.971-13.333-13.334-13.333s-13.333 5.97-13.333 13.333c0 6.205 4.258 11.374 10 12.861v27.611c-5.742 1.487-10 6.656-10 12.861 0 7.364 5.97 13.334 13.333 13.334s13.334-5.97 13.334-13.333c0-6.205-4.258-11.374-10-12.861zm-10-40.473c0-3.682 2.984-6.666 6.666-6.666s6.667 2.984 6.667 6.666-2.985 6.667-6.667 6.667-6.666-2.985-6.666-6.667zm6.666 60c-3.682 0-6.666-2.984-6.666-6.666s2.984-6.667 6.666-6.667 6.667 2.985 6.667 6.667-2.985 6.666-6.667 6.666z"/><path d="m80 63.806v-30.473c0-7.359-5.967-13.333-13.33-13.333h-11.956l5.283-5.286-4.714-4.714-10.973 10.977c-1.302 1.299-1.302 3.411 0 4.714l10.977 10.977 4.713-4.715-5.286-5.286h11.956c3.682 0 6.663 2.988 6.663 6.666v30.473c-5.738 1.487-10 6.656-10 12.861 0 7.363 5.971 13.333 13.334 13.333s13.333-5.97 13.333-13.333c0-6.205-4.261-11.374-10-12.861zm-3.333 19.527c-3.682 0-6.667-2.984-6.667-6.666s2.985-6.667 6.667-6.667 6.666 2.985 6.666 6.667-2.984 6.666-6.666 6.666z"/></svg>