<svg id="Layer_1" viewBox="0 0 24 24" xmlns="http://www.w3.org/2000/svg" data-name="Layer 1"><path d="m0 3.5c0-.829.671-1.5 1.5-1.5h21c.829 0 1.5.671 1.5 1.5s-.671 1.5-1.5 1.5h-21c-.829 0-1.5-.671-1.5-1.5zm22.5 15.5h-14c-.829 0-1.5.671-1.5 1.5s.671 1.5 1.5 1.5h14c.829 0 1.5-.671 1.5-1.5s-.671-1.5-1.5-1.5zm0-9h-14c-.829 0-1.5.671-1.5 1.5s.671 1.5 1.5 1.5h14c.829 0 1.5-.671 1.5-1.5s-.671-1.5-1.5-1.5zm-21 0c-.829 0-1.5.671-1.5 1.5v9c0 .829.671 1.5 1.5 1.5s1.5-.671 1.5-1.5v-9c0-.829-.671-1.5-1.5-1.5z"/></svg>