<svg id="Layer_1" enable-background="new 0 0 512 512" viewBox="0 0 512 512" xmlns="http://www.w3.org/2000/svg"><g id="_x30_7.Underline"><path d="m467.272 440.993h-422.544c-8.976 0-16.252 7.276-16.252 16.252v32.503c0 8.976 7.276 16.252 16.252 16.252h422.544c8.976 0 16.252-7.276 16.252-16.252v-32.503c0-8.976-7.276-16.252-16.252-16.252z"/><path d="m60.667 71.111h32.555v162.777c0 89.751 73.026 162.777 162.777 162.777s162.777-73.026 162.777-162.777v-162.777h32.555c8.99 0 16.278-7.288 16.278-16.278v-32.555c0-8.99-7.288-16.278-16.278-16.278h-146.5c-8.99 0-16.278 7.288-16.278 16.278v32.555c0 8.99 7.288 16.278 16.278 16.278h32.555v162.777c0 44.95-36.439 81.389-81.389 81.389s-81.389-36.439-81.389-81.389v-162.777h32.555c8.99 0 16.278-7.288 16.278-16.278v-32.555c0-8.99-7.288-16.278-16.278-16.278h-146.5c-8.99 0-16.278 7.288-16.278 16.278v32.555c.004 8.99 7.292 16.278 16.282 16.278z"/></g></svg>